<svg xmlns="http://www.w3.org/2000/svg" viewBox="0 0 360 720" role="img"><title>큰 V 자세와 손 모양 힌트</title><rect width="360" height="720" rx="24" fill="#f0f9ff"/><ellipse cx="178.38" cy="110.19" rx="16.30" ry="20.21" fill="white" stroke="#0284c7" stroke-width="5"/><path d="M214.50,154.67 L142.41,153.92" fill="none" stroke="#0284c7" stroke-width="8" stroke-linecap="round"/><path d="M214.50,154.67 L265.56,120.94" fill="none" stroke="#0284c7" stroke-width="8" stroke-linecap="round"/><path d="M265.56,120.94 L307.31,79.67" fill="none" stroke="#0284c7" stroke-width="8" stroke-linecap="round"/><path d="M142.41,153.92 L92.64,117.22" fill="none" stroke="#0284c7" stroke-width="8" stroke-linecap="round"/><path d="M92.64,117.22 L52.25,76.94" fill="none" stroke="#0284c7" stroke-width="8" stroke-linecap="round"/><path d="M214.50,154.67 L200.42,266.44" fill="none" stroke="#0284c7" stroke-width="8" stroke-linecap="round"/><path d="M142.41,153.92 L155.51,270.11" fill="none" stroke="#0284c7" stroke-width="8" stroke-linecap="round"/><path d="M200.42,266.44 L155.51,270.11" fill="none" stroke="#0284c7" stroke-width="8" stroke-linecap="round"/><path d="M200.42,266.44 L223.30,349.75" fill="none" stroke="#0284c7" stroke-width="8" stroke-linecap="round"/><path d="M223.30,349.75 L248.41,431.74" fill="none" stroke="#0284c7" stroke-width="8" stroke-linecap="round"/><path d="M155.51,270.11 L159.04,353.99" fill="none" stroke="#0284c7" stroke-width="8" stroke-linecap="round"/><path d="M159.04,353.99 L172.35,428.53" fill="none" stroke="#0284c7" stroke-width="8" stroke-linecap="round"/><path d="M248.41,431.74 L245.72,443.71" fill="none" stroke="#0284c7" stroke-width="8" stroke-linecap="round"/><path d="M245.72,443.71 L265.53,458.61" fill="none" stroke="#0284c7" stroke-width="8" stroke-linecap="round"/><path d="M172.35,428.53 L176.82,436.87" fill="none" stroke="#0284c7" stroke-width="8" stroke-linecap="round"/><path d="M176.82,436.87 L166.22,459.39" fill="none" stroke="#0284c7" stroke-width="8" stroke-linecap="round"/><circle cx="214.50" cy="154.67" r="6" fill="#0284c7" stroke="white" stroke-width="1.5"/><circle cx="142.41" cy="153.92" r="6" fill="#0284c7" stroke="white" stroke-width="1.5"/><circle cx="265.56" cy="120.94" r="6" fill="#0284c7" stroke="white" stroke-width="1.5"/><circle cx="92.64" cy="117.22" r="6" fill="#0284c7" stroke="white" stroke-width="1.5"/><circle cx="307.31" cy="79.67" r="6" fill="#0284c7" stroke="white" stroke-width="1.5"/><circle cx="52.25" cy="76.94" r="6" fill="#0284c7" stroke="white" stroke-width="1.5"/><circle cx="200.42" cy="266.44" r="6" fill="#0284c7" stroke="white" stroke-width="1.5"/><circle cx="155.51" cy="270.11" r="6" fill="#0284c7" stroke="white" stroke-width="1.5"/><circle cx="223.30" cy="349.75" r="6" fill="#0284c7" stroke="white" stroke-width="1.5"/><circle cx="159.04" cy="353.99" r="6" fill="#0284c7" stroke="white" stroke-width="1.5"/><circle cx="248.41" cy="431.74" r="6" fill="#0284c7" stroke="white" stroke-width="1.5"/><circle cx="172.35" cy="428.53" r="6" fill="#0284c7" stroke="white" stroke-width="1.5"/><circle cx="245.72" cy="443.71" r="6" fill="#0284c7" stroke="white" stroke-width="1.5"/><circle cx="176.82" cy="436.87" r="6" fill="#0284c7" stroke="white" stroke-width="1.5"/><circle cx="265.53" cy="458.61" r="6" fill="#0284c7" stroke="white" stroke-width="1.5"/><circle cx="166.22" cy="459.39" r="6" fill="#0284c7" stroke="white" stroke-width="1.5"/><path d="M308.40,78.31 L307.10,70.55" fill="none" stroke="#16a34a" stroke-width="3.2" stroke-linecap="round"/><path d="M307.10,70.55 L308.41,63.03" fill="none" stroke="#16a34a" stroke-width="3.2" stroke-linecap="round"/><path d="M308.41,63.03 L310.14,57.33" fill="none" stroke="#16a34a" stroke-width="3.2" stroke-linecap="round"/><path d="M310.14,57.33 L309.72,53.05" fill="none" stroke="#16a34a" stroke-width="3.2" stroke-linecap="round"/><path d="M308.40,78.31 L319.00,62.70" fill="none" stroke="#16a34a" stroke-width="3.2" stroke-linecap="round"/><path d="M319.00,62.70 L323.64,57.12" fill="none" stroke="#16a34a" stroke-width="3.2" stroke-linecap="round"/><path d="M323.64,57.12 L326.68,54.07" fill="none" stroke="#16a34a" stroke-width="3.2" stroke-linecap="round"/><path d="M326.68,54.07 L329.18,51.78" fill="none" stroke="#16a34a" stroke-width="3.2" stroke-linecap="round"/><path d="M319.00,62.70 L322.31,65.80" fill="none" stroke="#16a34a" stroke-width="3.2" stroke-linecap="round"/><path d="M322.31,65.80 L328.82,60.80" fill="none" stroke="#16a34a" stroke-width="3.2" stroke-linecap="round"/><path d="M328.82,60.80 L332.72,57.98" fill="none" stroke="#16a34a" stroke-width="3.2" stroke-linecap="round"/><path d="M332.72,57.98 L335.54,55.99" fill="none" stroke="#16a34a" stroke-width="3.2" stroke-linecap="round"/><path d="M322.31,65.80 L323.96,69.67" fill="none" stroke="#16a34a" stroke-width="3.2" stroke-linecap="round"/><path d="M323.96,69.67 L330.57,66.14" fill="none" stroke="#16a34a" stroke-width="3.2" stroke-linecap="round"/><path d="M330.57,66.14 L334.74,63.85" fill="none" stroke="#16a34a" stroke-width="3.2" stroke-linecap="round"/><path d="M334.74,63.85 L338.00,62.15" fill="none" stroke="#16a34a" stroke-width="3.2" stroke-linecap="round"/><path d="M323.96,69.67 L324.34,74.11" fill="none" stroke="#16a34a" stroke-width="3.2" stroke-linecap="round"/><path d="M308.40,78.31 L324.34,74.11" fill="none" stroke="#16a34a" stroke-width="3.2" stroke-linecap="round"/><path d="M324.34,74.11 L329.91,73.32" fill="none" stroke="#16a34a" stroke-width="3.2" stroke-linecap="round"/><path d="M329.91,73.32 L333.51,72.58" fill="none" stroke="#16a34a" stroke-width="3.2" stroke-linecap="round"/><path d="M333.51,72.58 L336.67,71.74" fill="none" stroke="#16a34a" stroke-width="3.2" stroke-linecap="round"/><circle cx="308.40" cy="78.31" r="2.5" fill="#16a34a" stroke="white" stroke-width="1.5"/><circle cx="307.10" cy="70.55" r="2.5" fill="#16a34a" stroke="white" stroke-width="1.5"/><circle cx="308.41" cy="63.03" r="2.5" fill="#16a34a" stroke="white" stroke-width="1.5"/><circle cx="310.14" cy="57.33" r="2.5" fill="#16a34a" stroke="white" stroke-width="1.5"/><circle cx="309.72" cy="53.05" r="2.5" fill="#16a34a" stroke="white" stroke-width="1.5"/><circle cx="319.00" cy="62.70" r="2.5" fill="#16a34a" stroke="white" stroke-width="1.5"/><circle cx="323.64" cy="57.12" r="2.5" fill="#16a34a" stroke="white" stroke-width="1.5"/><circle cx="326.68" cy="54.07" r="2.5" fill="#16a34a" stroke="white" stroke-width="1.5"/><circle cx="329.18" cy="51.78" r="2.5" fill="#16a34a" stroke="white" stroke-width="1.5"/><circle cx="322.31" cy="65.80" r="2.5" fill="#16a34a" stroke="white" stroke-width="1.5"/><circle cx="328.82" cy="60.80" r="2.5" fill="#16a34a" stroke="white" stroke-width="1.5"/><circle cx="332.72" cy="57.98" r="2.5" fill="#16a34a" stroke="white" stroke-width="1.5"/><circle cx="335.54" cy="55.99" r="2.5" fill="#16a34a" stroke="white" stroke-width="1.5"/><circle cx="323.96" cy="69.67" r="2.5" fill="#16a34a" stroke="white" stroke-width="1.5"/><circle cx="330.57" cy="66.14" r="2.5" fill="#16a34a" stroke="white" stroke-width="1.5"/><circle cx="334.74" cy="63.85" r="2.5" fill="#16a34a" stroke="white" stroke-width="1.5"/><circle cx="338.00" cy="62.15" r="2.5" fill="#16a34a" stroke="white" stroke-width="1.5"/><circle cx="324.34" cy="74.11" r="2.5" fill="#16a34a" stroke="white" stroke-width="1.5"/><circle cx="329.91" cy="73.32" r="2.5" fill="#16a34a" stroke="white" stroke-width="1.5"/><circle cx="333.51" cy="72.58" r="2.5" fill="#16a34a" stroke="white" stroke-width="1.5"/><circle cx="336.67" cy="71.74" r="2.5" fill="#16a34a" stroke="white" stroke-width="1.5"/><path d="M51.63,76.38 L52.76,68.60" fill="none" stroke="#16a34a" stroke-width="3.2" stroke-linecap="round"/><path d="M52.76,68.60 L51.15,61.47" fill="none" stroke="#16a34a" stroke-width="3.2" stroke-linecap="round"/><path d="M51.15,61.47 L49.51,56.05" fill="none" stroke="#16a34a" stroke-width="3.2" stroke-linecap="round"/><path d="M49.51,56.05 L50.38,51.96" fill="none" stroke="#16a34a" stroke-width="3.2" stroke-linecap="round"/><path d="M51.63,76.38 L40.20,61.46" fill="none" stroke="#16a34a" stroke-width="3.2" stroke-linecap="round"/><path d="M40.20,61.46 L35.47,56.28" fill="none" stroke="#16a34a" stroke-width="3.2" stroke-linecap="round"/><path d="M35.47,56.28 L32.55,53.14" fill="none" stroke="#16a34a" stroke-width="3.2" stroke-linecap="round"/><path d="M32.55,53.14 L29.86,50.61" fill="none" stroke="#16a34a" stroke-width="3.2" stroke-linecap="round"/><path d="M40.20,61.46 L37.08,64.80" fill="none" stroke="#16a34a" stroke-width="3.2" stroke-linecap="round"/><path d="M37.08,64.80 L30.42,60.60" fill="none" stroke="#16a34a" stroke-width="3.2" stroke-linecap="round"/><path d="M30.42,60.60 L26.42,57.86" fill="none" stroke="#16a34a" stroke-width="3.2" stroke-linecap="round"/><path d="M26.42,57.86 L22.87,55.81" fill="none" stroke="#16a34a" stroke-width="3.2" stroke-linecap="round"/><path d="M37.08,64.80 L35.82,68.70" fill="none" stroke="#16a34a" stroke-width="3.2" stroke-linecap="round"/><path d="M35.82,68.70 L29.04,65.89" fill="none" stroke="#16a34a" stroke-width="3.2" stroke-linecap="round"/><path d="M29.04,65.89 L25.45,63.64" fill="none" stroke="#16a34a" stroke-width="3.2" stroke-linecap="round"/><path d="M25.45,63.64 L22.00,61.43" fill="none" stroke="#16a34a" stroke-width="3.2" stroke-linecap="round"/><path d="M35.82,68.70 L35.78,72.80" fill="none" stroke="#16a34a" stroke-width="3.2" stroke-linecap="round"/><path d="M51.63,76.38 L35.78,72.80" fill="none" stroke="#16a34a" stroke-width="3.2" stroke-linecap="round"/><path d="M35.78,72.80 L30.38,72.45" fill="none" stroke="#16a34a" stroke-width="3.2" stroke-linecap="round"/><path d="M30.38,72.45 L27.12,71.90" fill="none" stroke="#16a34a" stroke-width="3.2" stroke-linecap="round"/><path d="M27.12,71.90 L24.08,70.92" fill="none" stroke="#16a34a" stroke-width="3.2" stroke-linecap="round"/><circle cx="51.63" cy="76.38" r="2.5" fill="#16a34a" stroke="white" stroke-width="1.5"/><circle cx="52.76" cy="68.60" r="2.5" fill="#16a34a" stroke="white" stroke-width="1.5"/><circle cx="51.15" cy="61.47" r="2.5" fill="#16a34a" stroke="white" stroke-width="1.5"/><circle cx="49.51" cy="56.05" r="2.5" fill="#16a34a" stroke="white" stroke-width="1.5"/><circle cx="50.38" cy="51.96" r="2.5" fill="#16a34a" stroke="white" stroke-width="1.5"/><circle cx="40.20" cy="61.46" r="2.5" fill="#16a34a" stroke="white" stroke-width="1.5"/><circle cx="35.47" cy="56.28" r="2.5" fill="#16a34a" stroke="white" stroke-width="1.5"/><circle cx="32.55" cy="53.14" r="2.5" fill="#16a34a" stroke="white" stroke-width="1.5"/><circle cx="29.86" cy="50.61" r="2.5" fill="#16a34a" stroke="white" stroke-width="1.5"/><circle cx="37.08" cy="64.80" r="2.5" fill="#16a34a" stroke="white" stroke-width="1.5"/><circle cx="30.42" cy="60.60" r="2.5" fill="#16a34a" stroke="white" stroke-width="1.5"/><circle cx="26.42" cy="57.86" r="2.5" fill="#16a34a" stroke="white" stroke-width="1.5"/><circle cx="22.87" cy="55.81" r="2.5" fill="#16a34a" stroke="white" stroke-width="1.5"/><circle cx="35.82" cy="68.70" r="2.5" fill="#16a34a" stroke="white" stroke-width="1.5"/><circle cx="29.04" cy="65.89" r="2.5" fill="#16a34a" stroke="white" stroke-width="1.5"/><circle cx="25.45" cy="63.64" r="2.5" fill="#16a34a" stroke="white" stroke-width="1.5"/><circle cx="22.00" cy="61.43" r="2.5" fill="#16a34a" stroke="white" stroke-width="1.5"/><circle cx="35.78" cy="72.80" r="2.5" fill="#16a34a" stroke="white" stroke-width="1.5"/><circle cx="30.38" cy="72.45" r="2.5" fill="#16a34a" stroke="white" stroke-width="1.5"/><circle cx="27.12" cy="71.90" r="2.5" fill="#16a34a" stroke="white" stroke-width="1.5"/><circle cx="24.08" cy="70.92" r="2.5" fill="#16a34a" stroke="white" stroke-width="1.5"/><path d="M20 513 H340" stroke="#bae6fd" stroke-width="2"/><text x="180" y="542" text-anchor="middle" fill="#0369a1" font-family="Arial,sans-serif" font-size="22" font-weight="bold">손 모양</text><path d="M157.56,681.57 L162.50,647.40" fill="none" stroke="#16a34a" stroke-width="4" stroke-linecap="round"/><path d="M162.50,647.40 L155.46,616.13" fill="none" stroke="#16a34a" stroke-width="4" stroke-linecap="round"/><path d="M155.46,616.13 L148.27,592.33" fill="none" stroke="#16a34a" stroke-width="4" stroke-linecap="round"/><path d="M148.27,592.33 L152.08,574.37" fill="none" stroke="#16a34a" stroke-width="4" stroke-linecap="round"/><path d="M157.56,681.57 L107.38,616.06" fill="none" stroke="#16a34a" stroke-width="4" stroke-linecap="round"/><path d="M107.38,616.06 L86.64,593.33" fill="none" stroke="#16a34a" stroke-width="4" stroke-linecap="round"/><path d="M86.64,593.33 L73.80,579.55" fill="none" stroke="#16a34a" stroke-width="4" stroke-linecap="round"/><path d="M73.80,579.55 L62.01,568.43" fill="none" stroke="#16a34a" stroke-width="4" stroke-linecap="round"/><path d="M107.38,616.06 L93.67,630.74" fill="none" stroke="#16a34a" stroke-width="4" stroke-linecap="round"/><path d="M93.67,630.74 L64.44,612.28" fill="none" stroke="#16a34a" stroke-width="4" stroke-linecap="round"/><path d="M64.44,612.28 L46.89,600.26" fill="none" stroke="#16a34a" stroke-width="4" stroke-linecap="round"/><path d="M46.89,600.26 L31.30,591.26" fill="none" stroke="#16a34a" stroke-width="4" stroke-linecap="round"/><path d="M93.67,630.74 L88.17,647.85" fill="none" stroke="#16a34a" stroke-width="4" stroke-linecap="round"/><path d="M88.17,647.85 L58.38,635.49" fill="none" stroke="#16a34a" stroke-width="4" stroke-linecap="round"/><path d="M58.38,635.49 L42.65,625.62" fill="none" stroke="#16a34a" stroke-width="4" stroke-linecap="round"/><path d="M42.65,625.62 L27.50,615.91" fill="none" stroke="#16a34a" stroke-width="4" stroke-linecap="round"/><path d="M88.17,647.85 L87.99,665.83" fill="none" stroke="#16a34a" stroke-width="4" stroke-linecap="round"/><path d="M157.56,681.57 L87.99,665.83" fill="none" stroke="#16a34a" stroke-width="4" stroke-linecap="round"/><path d="M87.99,665.83 L64.27,664.30" fill="none" stroke="#16a34a" stroke-width="4" stroke-linecap="round"/><path d="M64.27,664.30 L49.96,661.88" fill="none" stroke="#16a34a" stroke-width="4" stroke-linecap="round"/><path d="M49.96,661.88 L36.64,657.60" fill="none" stroke="#16a34a" stroke-width="4" stroke-linecap="round"/><circle cx="157.56" cy="681.57" r="3" fill="#16a34a" stroke="white" stroke-width="1.5"/><circle cx="162.50" cy="647.40" r="3" fill="#16a34a" stroke="white" stroke-width="1.5"/><circle cx="155.46" cy="616.13" r="3" fill="#16a34a" stroke="white" stroke-width="1.5"/><circle cx="148.27" cy="592.33" r="3" fill="#16a34a" stroke="white" stroke-width="1.5"/><circle cx="152.08" cy="574.37" r="3" fill="#16a34a" stroke="white" stroke-width="1.5"/><circle cx="107.38" cy="616.06" r="3" fill="#16a34a" stroke="white" stroke-width="1.5"/><circle cx="86.64" cy="593.33" r="3" fill="#16a34a" stroke="white" stroke-width="1.5"/><circle cx="73.80" cy="579.55" r="3" fill="#16a34a" stroke="white" stroke-width="1.5"/><circle cx="62.01" cy="568.43" r="3" fill="#16a34a" stroke="white" stroke-width="1.5"/><circle cx="93.67" cy="630.74" r="3" fill="#16a34a" stroke="white" stroke-width="1.5"/><circle cx="64.44" cy="612.28" r="3" fill="#16a34a" stroke="white" stroke-width="1.5"/><circle cx="46.89" cy="600.26" r="3" fill="#16a34a" stroke="white" stroke-width="1.5"/><circle cx="31.30" cy="591.26" r="3" fill="#16a34a" stroke="white" stroke-width="1.5"/><circle cx="88.17" cy="647.85" r="3" fill="#16a34a" stroke="white" stroke-width="1.5"/><circle cx="58.38" cy="635.49" r="3" fill="#16a34a" stroke="white" stroke-width="1.5"/><circle cx="42.65" cy="625.62" r="3" fill="#16a34a" stroke="white" stroke-width="1.5"/><circle cx="27.50" cy="615.91" r="3" fill="#16a34a" stroke="white" stroke-width="1.5"/><circle cx="87.99" cy="665.83" r="3" fill="#16a34a" stroke="white" stroke-width="1.5"/><circle cx="64.27" cy="664.30" r="3" fill="#16a34a" stroke="white" stroke-width="1.5"/><circle cx="49.96" cy="661.88" r="3" fill="#16a34a" stroke="white" stroke-width="1.5"/><circle cx="36.64" cy="657.60" r="3" fill="#16a34a" stroke="white" stroke-width="1.5"/><path d="M203.15,682.97 L197.50,649.03" fill="none" stroke="#16a34a" stroke-width="4" stroke-linecap="round"/><path d="M197.50,649.03 L203.19,616.18" fill="none" stroke="#16a34a" stroke-width="4" stroke-linecap="round"/><path d="M203.19,616.18 L210.76,591.30" fill="none" stroke="#16a34a" stroke-width="4" stroke-linecap="round"/><path d="M210.76,591.30 L208.93,572.59" fill="none" stroke="#16a34a" stroke-width="4" stroke-linecap="round"/><path d="M203.15,682.97 L249.49,614.76" fill="none" stroke="#16a34a" stroke-width="4" stroke-linecap="round"/><path d="M249.49,614.76 L269.75,590.38" fill="none" stroke="#16a34a" stroke-width="4" stroke-linecap="round"/><path d="M269.75,590.38 L283.02,577.02" fill="none" stroke="#16a34a" stroke-width="4" stroke-linecap="round"/><path d="M283.02,577.02 L293.97,567.03" fill="none" stroke="#16a34a" stroke-width="4" stroke-linecap="round"/><path d="M249.49,614.76 L263.95,628.31" fill="none" stroke="#16a34a" stroke-width="4" stroke-linecap="round"/><path d="M263.95,628.31 L292.38,606.47" fill="none" stroke="#16a34a" stroke-width="4" stroke-linecap="round"/><path d="M292.38,606.47 L309.41,594.14" fill="none" stroke="#16a34a" stroke-width="4" stroke-linecap="round"/><path d="M309.41,594.14 L321.77,585.44" fill="none" stroke="#16a34a" stroke-width="4" stroke-linecap="round"/><path d="M263.95,628.31 L271.15,645.23" fill="none" stroke="#16a34a" stroke-width="4" stroke-linecap="round"/><path d="M271.15,645.23 L300.05,629.79" fill="none" stroke="#16a34a" stroke-width="4" stroke-linecap="round"/><path d="M300.05,629.79 L318.24,619.76" fill="none" stroke="#16a34a" stroke-width="4" stroke-linecap="round"/><path d="M318.24,619.76 L332.50,612.37" fill="none" stroke="#16a34a" stroke-width="4" stroke-linecap="round"/><path d="M271.15,645.23 L272.79,664.60" fill="none" stroke="#16a34a" stroke-width="4" stroke-linecap="round"/><path d="M203.15,682.97 L272.79,664.60" fill="none" stroke="#16a34a" stroke-width="4" stroke-linecap="round"/><path d="M272.79,664.60 L297.17,661.16" fill="none" stroke="#16a34a" stroke-width="4" stroke-linecap="round"/><path d="M297.17,661.16 L312.87,657.93" fill="none" stroke="#16a34a" stroke-width="4" stroke-linecap="round"/><path d="M312.87,657.93 L326.68,654.23" fill="none" stroke="#16a34a" stroke-width="4" stroke-linecap="round"/><circle cx="203.15" cy="682.97" r="3" fill="#16a34a" stroke="white" stroke-width="1.5"/><circle cx="197.50" cy="649.03" r="3" fill="#16a34a" stroke="white" stroke-width="1.5"/><circle cx="203.19" cy="616.18" r="3" fill="#16a34a" stroke="white" stroke-width="1.5"/><circle cx="210.76" cy="591.30" r="3" fill="#16a34a" stroke="white" stroke-width="1.5"/><circle cx="208.93" cy="572.59" r="3" fill="#16a34a" stroke="white" stroke-width="1.5"/><circle cx="249.49" cy="614.76" r="3" fill="#16a34a" stroke="white" stroke-width="1.5"/><circle cx="269.75" cy="590.38" r="3" fill="#16a34a" stroke="white" stroke-width="1.5"/><circle cx="283.02" cy="577.02" r="3" fill="#16a34a" stroke="white" stroke-width="1.5"/><circle cx="293.97" cy="567.03" r="3" fill="#16a34a" stroke="white" stroke-width="1.5"/><circle cx="263.95" cy="628.31" r="3" fill="#16a34a" stroke="white" stroke-width="1.5"/><circle cx="292.38" cy="606.47" r="3" fill="#16a34a" stroke="white" stroke-width="1.5"/><circle cx="309.41" cy="594.14" r="3" fill="#16a34a" stroke="white" stroke-width="1.5"/><circle cx="321.77" cy="585.44" r="3" fill="#16a34a" stroke="white" stroke-width="1.5"/><circle cx="271.15" cy="645.23" r="3" fill="#16a34a" stroke="white" stroke-width="1.5"/><circle cx="300.05" cy="629.79" r="3" fill="#16a34a" stroke="white" stroke-width="1.5"/><circle cx="318.24" cy="619.76" r="3" fill="#16a34a" stroke="white" stroke-width="1.5"/><circle cx="332.50" cy="612.37" r="3" fill="#16a34a" stroke="white" stroke-width="1.5"/><circle cx="272.79" cy="664.60" r="3" fill="#16a34a" stroke="white" stroke-width="1.5"/><circle cx="297.17" cy="661.16" r="3" fill="#16a34a" stroke="white" stroke-width="1.5"/><circle cx="312.87" cy="657.93" r="3" fill="#16a34a" stroke="white" stroke-width="1.5"/><circle cx="326.68" cy="654.23" r="3" fill="#16a34a" stroke="white" stroke-width="1.5"/></svg>